<svg width="64" height="64" viewBox="0 0 64 64" fill="none" xmlns="http://www.w3.org/2000/svg">
<path d="M41 17H42V13H47V12C47 10.3431 45.6569 9 44 9H39C37.3431 9 36 10.3431 36 12V17H37M41 17V22M41 17H37M37 17V22M32 26V25C32 23.3431 33.3431 22 35 22H43C44.6569 22 46 23.3431 46 25V26M28 54H50C52.2091 54 54 52.2091 54 50V30C54 27.7909 52.2091 26 50 26H28C25.7909 26 24 27.7909 24 30V50C24 52.2091 25.7909 54 28 54ZM32 47V33H46V47H32Z" stroke="#A0A7D8" stroke-width="2"/>
<path d="M27.5 54H19H14C12.8954 54 12 53.1046 12 52V47M12 47L10 17M12 47H21M10 17H28M10 17V13H28V17M28 17L27.5 26" stroke="#A0A7D8" stroke-width="2"/>
</svg>
