<svg width="64" height="64" viewBox="0 0 64 64" fill="none" xmlns="http://www.w3.org/2000/svg">
<path fill-rule="evenodd" clip-rule="evenodd" d="M29.1198 21.9459C27.6649 21.766 26.4052 21.1558 25.7809 20.3754L24.2191 21.6248C25.4717 23.1905 27.8135 24.0001 30 24.0001C32.2075 24.0001 34.626 23.1701 35.8682 20.9962L34.1318 20.004C33.5729 20.9819 32.5662 21.603 31.3572 21.8618C31.0216 21.3688 30.6977 20.6568 30.4468 19.7676C30.1159 18.5951 29.9412 17.2167 29.9991 15.8551C30.1179 13.0642 31.1673 10.7306 33.3417 9.93989L32.6582 8.0603C29.3327 9.26961 28.1321 12.686 28.0009 15.7701C27.9338 17.346 28.1341 18.9363 28.522 20.3108C28.6834 20.8828 28.8829 21.4368 29.1198 21.9459ZM38.4739 14.9996C35.9754 14.9341 34.0544 16.0327 32.6089 17.1421L31.3912 15.5556C32.9996 14.321 35.3683 12.9175 38.5262 13.0002C43.101 13.1201 46.4842 14.5231 48.849 16.8069C51.2016 19.079 52.4478 22.1273 52.9418 25.3672C53.4163 28.4793 53.2081 31.8342 52.5722 35.0001H53C55.7614 35.0001 58 37.2387 58 40.0001V49.0001C58 51.7615 55.7614 54.0001 53 54.0001H7V43.0001H12.7973C11.6165 40.6915 10.3849 37.4752 9.67076 34.0281C8.78554 29.7551 8.6584 24.9472 10.6056 21.0529C12.2431 17.7778 14.6522 15.596 17.4657 14.5783C20.2749 13.5623 23.3926 13.741 26.3903 15.0117L25.6097 16.8531C23.0121 15.752 20.4186 15.6371 18.146 16.4591C15.8777 17.2795 13.8344 19.0675 12.3944 21.9473C10.7416 25.253 10.7811 29.5286 11.6292 33.6224C12.4119 37.4005 13.8517 40.87 15.0694 43.0001H47.633C48.8182 40.8631 49.8541 38.0972 50.5 35.1378V35.0001H50.5297C51.1862 31.9287 51.4202 28.657 50.9646 25.6687C50.5159 22.7256 49.4105 20.1295 47.4597 18.2456C45.5211 16.3734 42.6491 15.1089 38.4739 14.9996ZM52.1083 37.0001C51.5297 39.1978 50.7592 41.2508 49.8908 43.0001H53C54.6569 43.0001 56 41.6569 56 40.0001C56 38.3432 54.6569 37.0001 53 37.0001H52.1083ZM56 44.0005C55.1643 44.6282 54.1256 45.0001 53 45.0001H9V52.0001H14V47.0001H16V52.0001H21V47.0001H23V52.0001H28V47.0001H30V52.0001H35V47.0001H37V52.0001H42V47.0001H44V52.0001H49V47.0001H51V52.0001H53C54.6569 52.0001 56 50.6569 56 49.0001V44.0005Z" fill="#A0A7D8"/>
</svg>
