<svg width="64" height="64" viewBox="0 0 64 64" fill="none" xmlns="http://www.w3.org/2000/svg">
<path d="M10 32.0036C10 31.4513 10.4477 31.0036 11 31.0036H53C53.5523 31.0036 54 31.4513 54 32.0036V33.9999C54 34.5522 53.5523 34.9999 53 34.9999H52V36.0036C52 43.7356 45.732 50.0036 38 50.0036H26C18.268 50.0036 12 43.7356 12 36.0036V34.9999H11C10.4477 34.9999 10 34.5522 10 33.9999V32.0036Z" stroke="#A0A7D8" stroke-width="2"/>
<path d="M40 53.9999L24 53.9999L24 49.9999L40 49.9999L40 53.9999Z" stroke="#A0A7D8" stroke-width="2"/>
<path d="M32 30.9999L42 17M46 19L41.9915 30.9999" stroke="#A0A7D8" stroke-width="2"/>
<path d="M12 35.0036H52" stroke="#A0A7D8" stroke-width="2"/>
<path d="M30 24V17.0001C30 16.3958 30 15.7102 30 15.0008C30 11.687 27.3136 9.00031 23.9999 9.00039V9.00039C21.7908 9.00044 20 10.7913 20 13.0004V15" stroke="#A0A7D8" stroke-width="2"/>
<path d="M31 24L22.9999 24C22.3955 24 21.7099 24 21.0003 24C17.6867 24 15 21.3137 15.0001 18.0001V18.0001C15.0001 15.791 16.7909 14.0002 19 14.0002L21 14.0002" stroke="#A0A7D8" stroke-width="2"/>
<path d="M27 21L15 9" stroke="#A0A7D8" stroke-width="2"/>
<path d="M51 14C51 16.7614 48.7614 19 46 19C43.2386 19 41 16.7614 41 14C41 11.2386 43.2386 9 46 9C48.7614 9 51 11.2386 51 14Z" stroke="#A0A7D8" stroke-width="2"/>
</svg>
