<svg width="64" height="64" viewBox="0 0 64 64" fill="none" xmlns="http://www.w3.org/2000/svg">
<path d="M32 17C34.5 19 35.5 23 32.5 23C30 23 30 21 30 21M32 17C38.7151 17 44.3129 21.467 45 28C45 28 48 27.5314 48 30.5312C48 33.531 45 33 45 33C43.9053 39.0719 38.3872 43 32 43C25.3438 43 19.7649 39.4504 19 33C19 33 16 33.531 16 30.5312C16 27.5314 19 28 19 28C19.5106 21.2876 25.1568 17 32 17ZM40 28L37.5 27L35 28M29 28L26.5 27L24 28M36 34C37 38 27 38 28 34" stroke="#A0A7D8" stroke-width="2"/>
<path d="M31.9912 16.9156L31.3895 16.2989C28.6815 13.5237 25.0886 12 21.2656 12C17.4603 12 13.8674 13.5237 11.1771 16.2808C8.46918 19.056 6.98246 22.7382 7.00016 26.638C7.00016 30.556 8.50458 34.22 11.1948 36.9953C14.7861 40.6757 31.9735 53 31.9735 53C31.9735 53 49.1908 40.7222 52.8053 37.0315C55.5133 34.2563 57 30.5741 57 26.6743C57 22.7563 55.5133 19.0741 52.823 16.2989C50.1151 13.5237 46.5222 12 42.7169 12C39.9394 12 37.2834 12.8042 35 14.3083" stroke="#A0A7D8" stroke-width="2"/>
</svg>
