<svg width="64" height="64" viewBox="0 0 64 64" fill="none" xmlns="http://www.w3.org/2000/svg">
<path d="M24 35.3554C20.7011 34.6619 12 31.1941 12 22.8716V13.1602C12 10.8619 13.8989 9.00059 16.2414 9.00059L19 9M24 35.3554C27.2989 34.6619 36 31.1941 36 22.8716V13.1602C36 10.8619 34.1011 9.00059 31.7586 9.00059H29V12.0006V6.00059M24 35.3554V41.5006C24 43.9859 21.9853 46.0006 19.5 46.0006V46.0006C17.0147 46.0006 15 48.0153 15 50.5006V51.5006C15 54.5382 17.4624 57.0006 20.5 57.0006H26.5H33.9655H39C42.3137 57.0006 45 54.3143 45 51.0006V44.0006M19 9V12M19 9V6" stroke="#A0A7D8" stroke-width="2"/>
<path d="M33.5 29.0005C32.1667 28.3338 28.3 27.0005 23.5 27.0005C18.7 27.0005 15.1667 28.3338 14 29.0005" stroke="#A0A7D8" stroke-width="2"/>
<path d="M36 26C34.6667 25.3333 29.5 23 23.5 23C17.5 23 13.6667 24.8333 12.5 25.5" stroke="#A0A7D8" stroke-width="2"/>
<circle cx="45" cy="37.0006" r="7" stroke="#A0A7D8" stroke-width="2"/>
<path d="M45 33.0006V41.0006" stroke="#A0A7D8" stroke-width="2"/>
<path d="M49 37.0006L41 37.0006" stroke="#A0A7D8" stroke-width="2"/>
</svg>
