<svg width="64" height="64" viewBox="0 0 64 64" fill="none" xmlns="http://www.w3.org/2000/svg">
<path d="M27 19C27 16.7909 28.7909 15 31 15H51C53.2091 15 55 16.7909 55 19V49C55 51.2091 53.2091 53 51 53H31C28.7909 53 27 51.2091 27 49V19Z" stroke="#A0A7D8" stroke-width="2"/>
<path d="M22.5 23H13M32.5 53H13C10.7909 53 9 51.2091 9 49V25C9 23.8954 9.89543 23 11 23H13M13 23V19M13 19H10C9.44772 19 9 18.5523 9 18V11C9 10.4477 9.44772 10 10 10H32.5C33.0523 10 33.5 10.4477 33.5 11V15M13 19H27.5" stroke="#A0A7D8" stroke-width="2"/>
<path d="M41 20V48" stroke="#A0A7D8" stroke-width="2"/>
<path d="M27 31H14V43H27" stroke="#A0A7D8" stroke-width="2"/>
<rect x="32" y="20" width="4" height="6" rx="2" stroke="#A0A7D8" stroke-width="2"/>
<rect x="46" y="20" width="4" height="6" rx="2" stroke="#A0A7D8" stroke-width="2"/>
<rect x="32" y="31" width="4" height="6" rx="2" stroke="#A0A7D8" stroke-width="2"/>
<rect x="46" y="31" width="4" height="6" rx="2" stroke="#A0A7D8" stroke-width="2"/>
<rect x="32" y="42" width="4" height="6" rx="2" stroke="#A0A7D8" stroke-width="2"/>
<rect x="46" y="42" width="4" height="6" rx="2" stroke="#A0A7D8" stroke-width="2"/>
</svg>
