<svg width="64" height="64" viewBox="0 0 64 64" fill="none" xmlns="http://www.w3.org/2000/svg">
<path d="M16 34.0001H9C7.34315 34.0001 6 32.657 6 31.0001V24.0001M16 34.0001H23C24.6569 34.0001 26 32.657 26 31.0001V24.0001M16 34.0001L16 52.5C16 53.8807 17.1193 55 18.5 55C19.8807 55 21 53.8807 21 52.5V43.5C21 42.1193 22.1193 41 23.5 41C24.8807 41 26 42.1193 26 43.5L26 52C26 53.6569 27.3431 55 29 55H48C49.6569 55 51 53.6569 51 52V44M6 24.0001V9.00059C6 7.34374 7.34315 6.00059 9.00001 6.0006L23 6.00063C24.6569 6.00064 26 7.34378 26 9.00063V24.0001M6 24.0001L26 24.0001M38 27.9996V30.9996M38 32.9996V35.9996M38 22.9996V25.9996M38 37.9996V40.9996M35 20.0001H41C42.1046 20.0001 43 20.8955 43 22.0001V41.9996C43 43.1042 42.1046 43.9996 41 43.9996H35M34 10.9999H40L43 15L46 6L49 10.9999H55M33 20.0001V43.9996H56V20.0001H33ZM18 29C18 30.1046 17.1046 31 16 31C14.8954 31 14 30.1046 14 29C14 27.8954 14.8954 27 16 27C17.1046 27 18 27.8954 18 29ZM16 12L14.4142 10.4142C13.6332 9.63317 12.3668 9.63317 11.5858 10.4142L10.4142 11.5858C9.63317 12.3668 9.63317 13.6332 10.4142 14.4142L16 20L21.5858 14.4142C22.3668 13.6332 22.3668 12.3668 21.5858 11.5858L20.4142 10.4142C19.6332 9.63316 18.3668 9.63316 17.5858 10.4142C16.9665 11.0335 16.6193 11.3807 16 12Z" stroke="#A0A7D8" stroke-width="2"/>
</svg>
