<svg width="64" height="64" viewBox="0 0 64 64" fill="none" xmlns="http://www.w3.org/2000/svg">
<path d="M46 31.4143C50.617 32.7202 54 36.9651 54 42.0002C54 48.0754 49.0751 53.0002 43 53.0002C36.9249 53.0002 32 48.0754 32 42.0002C32 36.9651 35.383 32.7202 40 31.4143" stroke="#A0A7D8" stroke-width="2"/>
<path d="M43 19V35M43 19L38.0001 24M43 19L48 24" stroke="#A0A7D8" stroke-width="2"/>
<path d="M24 32.5859C28.617 31.2801 32 27.0351 32 22C32 15.9249 27.0751 11 21 11C14.9249 11 10 15.9249 10 22C10 27.0351 13.383 31.2801 18 32.5859" stroke="#A0A7D8" stroke-width="2"/>
<path d="M14 22C14 18.134 17.134 15 21 15V15C24.866 15 28 18.134 28 22V22C28 25.866 24.866 29 21 29V29C17.134 29 14 25.866 14 22V22Z" stroke="#A0A7D8" stroke-width="2"/>
<path d="M36 42C36 38.134 39.134 35 43 35V35C46.866 35 50 38.134 50 42V42C50 45.866 46.866 49 43 49V49C39.134 49 36 45.866 36 42V42Z" stroke="#A0A7D8" stroke-width="2"/>
<path d="M20.9202 28.5V48" stroke="#A0A7D8" stroke-width="2"/>
<path d="M27 42L15 42" stroke="#A0A7D8" stroke-width="2"/>
</svg>
