<svg width="64" height="64" viewBox="0 0 64 64" fill="none" xmlns="http://www.w3.org/2000/svg">
<path d="M9 26V19.0001H24M9 26V54H55V26M9 26H15M55 26V19.0001H40M55 26H48M24 19.0001H40M24 19.0001V14H22M40 19.0001V14H42M15 26V23.0004H19V26M15 26V29.0004H19V26M48 26V23.0004H44V26M48 26V29.0004H44V26M44 26H19M22 14V10H42V14M22 14H42M41 40C41 44.9706 36.9706 49 32 49C27.0294 49 23 44.9706 23 40C23 35.0294 27.0294 31 32 31C36.9706 31 41 35.0294 41 40ZM30 35V38H27V42H30V45H34V42H37V38H34V35H30Z" stroke="#A0A7D8" stroke-width="2"/>
</svg>
