<svg width="122" height="53" viewBox="0 0 122 53" fill="none" xmlns="http://www.w3.org/2000/svg">
<path fill-rule="evenodd" clip-rule="evenodd" d="M44.2061 40.1782H114.634C114.625 43.5761 113.271 46.8322 110.868 49.2348C108.466 51.6375 105.21 52.9912 101.812 53.0001H44.2061V40.1782Z" fill="#CA1D83"/>
<path fill-rule="evenodd" clip-rule="evenodd" d="M29.5283 22.0337C29.5717 23.6999 29.2809 25.358 28.6732 26.91C28.0655 28.4621 27.1531 29.8767 25.9899 31.0706C24.8267 32.2644 23.4363 33.2132 21.9005 33.861C20.3648 34.5089 18.7149 34.8427 17.0481 34.8427C15.3813 34.8427 13.7313 34.5089 12.1956 33.861C10.6599 33.2132 9.2694 32.2644 8.10622 31.0706C6.94303 29.8767 6.03068 28.4621 5.42296 26.91C4.81525 25.358 4.52448 23.6999 4.5678 22.0337H0.00421802C-0.0462887 24.3038 0.357221 26.5612 1.19106 28.6732C2.0249 30.7853 3.27227 32.7095 4.85993 34.3329C6.4476 35.9563 8.34358 37.2461 10.4366 38.1267C12.5296 39.0073 14.7774 39.461 17.0481 39.461C19.3188 39.461 21.5666 39.0073 23.6596 38.1267C25.7526 37.2461 27.6485 35.9563 29.2362 34.3329C30.8239 32.7095 32.0712 30.7853 32.9051 28.6732C33.7389 26.5612 34.1424 24.3038 34.0919 22.0337H29.5283Z" fill="#1AAECD"/>
<path d="M98.851 46.9263C99.447 46.9374 100.04 47.008 100.622 47.1372V48.5122C100.311 48.8226 99.9413 49.0682 99.5344 49.2347C99.1276 49.4012 98.6917 49.4854 98.2521 49.4823C97.4085 49.4823 96.7168 49.0774 96.7168 48.276C96.7168 47.2553 97.8134 46.9263 98.851 46.9263ZM102.444 48.7906V45.855C102.444 43.3834 100.977 42.2784 98.6654 42.2784C97.5975 42.2917 96.5384 42.4739 95.5274 42.8183V44.5053C96.4551 44.0961 97.4575 43.8836 98.4714 43.8811C99.8717 43.8811 100.622 44.5897 100.622 45.6188V45.9056C99.9204 45.7576 99.2056 45.6785 98.4882 45.6694C96.8012 45.6694 94.8441 46.319 94.8441 48.411C94.8441 50.0981 96.2275 50.9416 97.7037 50.9416C98.8252 50.9665 99.9192 50.5928 100.791 49.8872C100.931 50.1961 101.164 50.4538 101.457 50.6245C101.751 50.7953 102.09 50.8707 102.428 50.8404C102.826 50.8366 103.221 50.7594 103.592 50.6126V49.2798C103.414 49.3386 103.23 49.3726 103.043 49.381C102.963 49.3919 102.881 49.3843 102.804 49.3586C102.727 49.3329 102.657 49.2899 102.599 49.2329C102.541 49.1758 102.497 49.1063 102.47 49.0296C102.444 48.953 102.435 48.8712 102.444 48.7906ZM88.1042 50.6801V47.3059H89.4201L92.111 50.6801H94.2115L90.9216 46.5552L93.8825 42.4977H91.8074L89.4539 45.7369H88.1042V42.4977H86.2821V50.6801H88.1042ZM82.7055 45.9056H78.2094C78.2254 45.6078 78.3007 45.3161 78.4308 45.0477C78.5608 44.7792 78.7431 44.5394 78.967 44.3423C79.1908 44.1452 79.4517 43.9946 79.7345 43.8995C80.0172 43.8044 80.316 43.7666 80.6135 43.7883C80.9 43.7566 81.19 43.7894 81.4622 43.8844C81.7344 43.9793 81.9819 44.1339 82.1866 44.337C82.3912 44.54 82.5478 44.7863 82.6449 45.0577C82.742 45.3291 82.7771 45.6189 82.7477 45.9056H82.7055ZM76.3452 46.5889C76.3452 49.4654 78.4793 50.8994 80.9847 50.8994C81.9889 50.9247 82.9869 50.7349 83.9118 50.3427V48.7737C83.1023 49.156 82.2173 49.3521 81.3221 49.3473C79.8206 49.3473 78.395 48.7399 78.1841 47.2722H84.3588C84.8903 44.9018 83.7599 42.2784 80.5038 42.2784C79.9458 42.2753 79.3931 42.3863 78.8794 42.6043C78.3658 42.8224 77.9021 43.143 77.5167 43.5466C77.1313 43.9501 76.8324 44.4281 76.6382 44.9512C76.444 45.4744 76.3586 46.0316 76.3873 46.5889H76.3452ZM72.7179 50.6801V44.1004H75.5354V42.4977H68.1122V44.1004H70.938V50.6801H72.7179ZM60.6046 50.6801V44.1004H64.6958V50.6801H66.56V42.4977H58.8247V50.6801H60.6046ZM52.5403 46.9263C53.1391 46.9374 53.7353 47.008 54.3202 47.1372V48.5122C54.0089 48.8226 53.6391 49.0682 53.2322 49.2347C52.8253 49.4012 52.3894 49.4854 51.9498 49.4823C51.1063 49.4823 50.4146 49.0774 50.4146 48.276C50.4567 47.2384 51.5449 46.9263 52.5825 46.9263H52.5403ZM56.1422 48.7906V45.855C56.1422 43.3834 54.6745 42.2784 52.3547 42.2784C51.2868 42.2917 50.2277 42.4739 49.2167 42.8183V44.5053C50.1471 44.0955 51.1524 43.8829 52.1691 43.8811C53.5694 43.8811 54.3202 44.5897 54.3202 45.6188V45.9056C53.6182 45.7576 52.9034 45.6785 52.186 45.6694C50.4989 45.6694 48.5334 46.319 48.5334 48.411C48.5334 50.0981 49.9169 50.9416 51.4015 50.9416C52.523 50.9665 53.6169 50.5928 54.4889 49.8872C54.6282 50.1969 54.8608 50.4553 55.1543 50.6262C55.4477 50.7971 55.7872 50.872 56.1254 50.8404C56.5497 50.8475 56.9713 50.7701 57.3654 50.6126V49.2798C57.1912 49.3393 57.0094 49.3734 56.8255 49.381C56.7419 49.3995 56.6552 49.3975 56.5725 49.3752C56.4899 49.3529 56.4139 49.311 56.351 49.253C56.288 49.195 56.24 49.1227 56.211 49.0422C56.182 48.9617 56.1729 48.8754 56.1844 48.7906H56.1422Z" fill="#FDFDFD"/>
<path fill-rule="evenodd" clip-rule="evenodd" d="M5.68977 19.7475H10.1859V14.062H15.8798V9.56587H10.1859V3.88037H5.68977V9.56587H0.00427246V14.062H5.68977V19.7475Z" fill="#1AAECD"/>
<path d="M52.5403 28.4359C52.5403 30.8316 51.3509 31.9113 49.3179 31.9113H47.6308V24.9521H49.3179C51.3509 24.9521 52.5403 26.0318 52.5403 28.4359ZM44.2061 22.025V34.8469H49.3179C53.8984 34.8469 56.0241 32.1728 56.0241 28.4359C56.0241 24.699 53.8984 22.025 49.3179 22.025H44.2061ZM118.438 26.4199C118.438 27.5755 117.527 27.8792 116.498 27.8792H114.642V24.9521H116.49C117.519 24.9521 118.43 25.3064 118.43 26.4199H118.438ZM111.26 22.025V34.8469H114.634V30.8147H116.321C119.484 30.8147 121.905 29.7856 121.905 26.4199C121.905 23.0541 119.484 22.025 116.321 22.025H111.26ZM106.004 28.4359C106.004 30.4858 104.832 32.0041 102.63 32.0041C100.428 32.0041 99.2559 30.4858 99.2559 28.4359C99.2559 26.3861 100.428 24.8593 102.63 24.8593C104.832 24.8593 105.996 26.3777 105.996 28.4359H106.004ZM95.7467 28.4359C95.7467 32.0041 98.0327 35.1168 102.613 35.1168C107.194 35.1168 109.48 32.0041 109.48 28.4359C109.48 24.8677 107.194 21.7466 102.613 21.7466C98.0327 21.7466 95.7383 24.8593 95.7383 28.4359H95.7467ZM84.6794 22.025V25.0449H88.3066V34.8469H91.6808V25.0449H95.3249V22.025H84.6794ZM76.1005 34.8469V29.8953H77.6948L80.8075 34.8469H84.5613L80.3436 28.2672L84.3673 22.025H80.6219L77.7117 26.8754H76.1005V22.025H72.7263V34.8469H76.1005ZM67.4879 28.4359C67.4879 30.4858 66.3154 32.0041 64.1137 32.0041C61.9121 32.0041 60.7396 30.4858 60.7396 28.4359C60.7396 26.3861 61.9121 24.8593 64.1137 24.8593C66.3154 24.8593 67.4879 26.3777 67.4879 28.4359ZM57.2304 28.4359C57.2304 32.0041 59.5164 35.1168 64.0969 35.1168C68.6773 35.1168 70.9633 32.0041 70.9633 28.4359C70.9633 24.8677 68.6773 21.7466 64.0969 21.7466C59.5164 21.7466 57.1967 24.8593 57.1967 28.4359H57.2304ZM92.5244 2.28601V0C91.613 0.542086 90.5641 0.808696 89.5045 0.767627C88.4309 0.814986 87.3667 0.54822 86.4424 0V2.31132C87.3367 2.90681 88.3973 3.20224 89.4707 3.15486C90.5413 3.20044 91.5987 2.90508 92.4906 2.31132L92.5244 2.28601ZM91.8833 16.6263V11.4469C91.8833 10.7552 91.8833 9.94541 91.9592 9.34649L86.8979 16.6853H83.6924V3.86344H87.0666V9.10186C87.0666 9.81888 87.0666 10.6287 86.9991 11.2276L92.0182 3.86344H95.2237V16.6853L91.8833 16.6263ZM78.454 10.2744C78.454 12.3242 77.2815 13.851 75.0798 13.851C72.8782 13.851 71.7057 12.3242 71.7057 10.2744C71.7057 8.22457 72.836 6.74837 75.0798 6.74837C77.3237 6.74837 78.454 8.22457 78.454 10.2744ZM68.1965 10.2744C68.1965 13.851 70.4909 16.9637 75.0714 16.9637C79.6519 16.9637 81.9379 13.851 81.9379 10.2744C81.9379 6.69776 79.6266 3.59351 75.0798 3.59351C70.5331 3.59351 68.1796 6.74837 68.1796 10.2744H68.1965ZM63.1943 7.74375C63.1943 8.47764 62.6881 8.93315 61.7856 8.93315H59.702V6.52061H61.7856C62.6713 6.52061 63.1774 6.97613 63.1774 7.71001L63.1943 7.74375ZM63.692 12.7291C63.692 13.7329 63.0171 14.0619 62.0049 14.0619H59.6598V11.3541H61.9711C63.0003 11.3541 63.6751 11.6831 63.6751 12.6954L63.692 12.7291ZM56.2941 3.86344V16.6853H61.8615C64.2993 16.6853 67.083 15.9768 67.083 13.0581C67.1146 12.3306 66.8894 11.6152 66.4468 11.0369C66.0043 10.4587 65.3725 10.0544 64.662 9.89479C65.2471 9.71368 65.7538 9.34015 66.0999 8.83483C66.4459 8.32952 66.6111 7.72207 66.5685 7.11109C66.5685 4.89257 64.8814 3.86344 62.0808 3.86344H56.2941ZM44.2229 3.86344V6.89177H47.8502V16.6853H51.2244V6.89177H54.8347V3.86344H44.2229Z" fill="#576875"/>
<path fill-rule="evenodd" clip-rule="evenodd" d="M22.7124 7.81143V15.8167H25.7998C28.3895 15.8167 29.5283 14.3405 29.5283 11.8098C29.5283 9.2792 28.4232 7.80299 25.8335 7.80299L22.7124 7.81143ZM18.2163 3.87207H25.8082C30.8695 3.87207 34.1003 6.66421 34.1003 11.8183C34.1003 16.9723 30.9032 19.756 25.8082 19.756H18.2163V3.87207Z" fill="#1AAECD"/>
</svg>
