<svg width="768" height="768" viewBox="0 0 768 768" fill="none" xmlns="http://www.w3.org/2000/svg">
    <path d="M32 320C23.5131 320 15.3738 316.629 9.37259 310.627C3.37143 304.626 0 296.487 0 288V32.064C0 23.5771 3.37143 15.4377 9.37259 9.43658C15.3738 3.43542 23.5131 0.0639954 32 0.0639954H288C296.487 0.0639954 304.626 3.43542 310.627 9.43658C316.629 15.4377 320 23.5771 320 32.064V288C320 296.487 316.629 304.626 310.627 310.627C304.626 316.629 296.487 320 288 320H32ZM480 320C471.513 320 463.374 316.629 457.373 310.627C451.371 304.626 448 296.487 448 288V32.064C448 23.5771 451.371 15.4377 457.373 9.43658C463.374 3.43542 471.513 0.0639954 480 0.0639954H735.936C744.423 0.0639954 752.562 3.43542 758.563 9.43658C764.565 15.4377 767.936 23.5771 767.936 32.064V288C767.936 296.487 764.565 304.626 758.563 310.627C752.562 316.629 744.423 320 735.936 320H480ZM32 768C23.5131 768 15.3738 764.629 9.37259 758.627C3.37143 752.626 0 744.487 0 736V480C0 471.513 3.37143 463.374 9.37259 457.373C15.3738 451.371 23.5131 448 32 448H288C296.487 448 304.626 451.371 310.627 457.373C316.629 463.374 320 471.513 320 480V736C320 744.487 316.629 752.626 310.627 758.627C304.626 764.629 296.487 768 288 768H32ZM480 768C471.513 768 463.374 764.629 457.373 758.627C451.371 752.626 448 744.487 448 736V480C448 471.513 451.371 463.374 457.373 457.373C463.374 451.371 471.513 448 480 448H735.936C744.423 448 752.562 451.371 758.563 457.373C764.565 463.374 767.936 471.513 767.936 480V736C767.936 744.487 764.565 752.626 758.563 758.627C752.562 764.629 744.423 768 735.936 768H480Z" fill="#777777"/>
</svg>
